<?xml version="1.0" encoding="UTF-8" standalone="no"?>
<!-- Created with Inkscape (http://www.inkscape.org/) -->

<svg
   xmlns:dc="http://purl.org/dc/elements/1.1/"
   xmlns:cc="http://creativecommons.org/ns#"
   xmlns:rdf="http://www.w3.org/1999/02/22-rdf-syntax-ns#"
   xmlns:svg="http://www.w3.org/2000/svg"
   xmlns="http://www.w3.org/2000/svg"
   xmlns:sodipodi="http://sodipodi.sourceforge.net/DTD/sodipodi-0.dtd"
   xmlns:inkscape="http://www.inkscape.org/namespaces/inkscape"
   width="21.6674mm"
   height="6.5686998mm"
   viewBox="0 0 21.6674 6.5686998"
   version="1.1"
   id="svg3793"
   inkscape:version="0.92.4 (f8dce91, 2019-08-02)"
   sodipodi:docname="desenhando.svg">
  <defs
     id="defs3787" />
  <sodipodi:namedview
     id="base"
     pagecolor="#ffffff"
     bordercolor="#666666"
     borderopacity="1.0"
     inkscape:pageopacity="0.0"
     inkscape:pageshadow="2"
     inkscape:zoom="2.8"
     inkscape:cx="-13.491787"
     inkscape:cy="15.98312"
     inkscape:document-units="mm"
     inkscape:current-layer="layer1"
     showgrid="false"
     inkscape:window-width="1600"
     inkscape:window-height="874"
     inkscape:window-x="1366"
     inkscape:window-y="0"
     inkscape:window-maximized="1" />
  <metadata
     id="metadata3790">
    <rdf:RDF>
      <cc:Work
         rdf:about="">
        <dc:format>image/svg+xml</dc:format>
        <dc:type
           rdf:resource="http://purl.org/dc/dcmitype/StillImage" />
        <dc:title></dc:title>
      </cc:Work>
    </rdf:RDF>
  </metadata>
  <g
     inkscape:label="Camada 1"
     inkscape:groupmode="layer"
     id="layer1"
     transform="translate(-86.684157,-91.876364)">
    <g
       transform="translate(-88.536443,5.2826643)"
       style="clip-rule:evenodd;fill-rule:evenodd;image-rendering:optimizeQuality;shape-rendering:geometricPrecision;text-rendering:geometricPrecision"
       id="_130045744">
      <polygon
         style="fill:#ffffff;fill-rule:nonzero"
         points="195.351,90.1832 195.351,91.3445 196.878,91.3445 196.878,92.1207 194.185,92.1207 194.185,87.6354 196.888,87.6354 196.888,88.376 195.351,88.376 195.351,89.4781 196.859,89.4781 196.859,90.1832 "
         class="fil2"
         id="_130046128" />
      <polygon
         style="fill:#ffffff;fill-rule:nonzero"
         points="191.587,92.1207 191.587,88.376 190.572,88.376 190.572,87.6354 193.759,87.6354 193.759,88.376 192.753,88.376 192.753,92.1207 "
         class="fil2"
         id="_130046056" />
      <path
         style="fill:#ffffff;fill-rule:nonzero"
         inkscape:connector-curvature="0"
         d="m 186.182,89.9995 c 0.0695,0 0.1295,-0.0129 0.18,-0.0385 0.0506,-0.0257 0.0932,-0.0711 0.1281,-0.1363 0.0347,-0.0652 0.06,-0.154 0.0758,-0.2666 0.0158,-0.1126 0.0238,-0.2539 0.0238,-0.4236 0,-0.1581 -0.01,-0.2874 -0.0285,-0.3881 -0.0191,-0.1008 -0.0459,-0.1788 -0.0807,-0.2341 -0.0348,-0.0553 -0.079,-0.0928 -0.1328,-0.1125 -0.0535,-0.0199 -0.1185,-0.0297 -0.1943,-0.0297 h -0.4267 v 1.6294 z m -1.6215,2.1212 v -4.4853 h 1.8206 c 0.2717,0 0.4977,0.0246 0.6778,0.074 0.1803,0.0494 0.3224,0.1334 0.4268,0.2519 0.1043,0.1185 0.1771,0.2745 0.2181,0.468 0.0411,0.1936 0.0617,0.4346 0.0617,0.723 0,0.2882 -0.0206,0.5322 -0.0617,0.7316 -0.041,0.1995 -0.1138,0.3616 -0.2181,0.486 -0.1044,0.1244 -0.2465,0.2142 -0.4268,0.2696 -0.1801,0.0553 -0.4061,0.0828 -0.6778,0.0828 h -0.6544 v 1.3984 z"
         class="fil2"
         id="_130045984" />
      <path
         style="fill:#ffffff;fill-rule:nonzero"
         inkscape:connector-curvature="0"
         d="m 180.085,88.3701 h -0.0854 l -0.2843,1.9138 h 0.6447 z m 0.4648,3.7506 -0.1424,-1.1258 h -0.7395 l -0.1423,1.1258 h -1.1663 l 0.7396,-4.4853 h 1.9629 l 0.6921,4.4853 z"
         class="fil2"
         id="_130045912" />
      <path
         style="fill:#ffffff;fill-rule:nonzero"
         inkscape:connector-curvature="0"
         d="m 176.842,89.9995 c 0.0696,0 0.1296,-0.0129 0.1802,-0.0385 0.0505,-0.0257 0.0932,-0.0711 0.1279,-0.1363 0.0349,-0.0652 0.0601,-0.154 0.0759,-0.2666 0.0157,-0.1126 0.0238,-0.2539 0.0238,-0.4236 0,-0.1581 -0.01,-0.2874 -0.0284,-0.3881 -0.0191,-0.1008 -0.046,-0.1788 -0.0808,-0.2341 -0.0347,-0.0553 -0.0789,-0.0928 -0.1327,-0.1125 -0.0536,-0.0199 -0.1185,-0.0297 -0.1943,-0.0297 h -0.4268 v 1.6294 z m -1.6214,2.1212 v -4.4853 h 1.8206 c 0.2717,0 0.4977,0.0246 0.6779,0.074 0.1803,0.0494 0.3224,0.1334 0.4267,0.2519 0.1042,0.1185 0.177,0.2745 0.2181,0.468 0.041,0.1936 0.0616,0.4346 0.0616,0.723 0,0.2882 -0.0206,0.5322 -0.0616,0.7316 -0.0411,0.1995 -0.1139,0.3616 -0.2181,0.486 -0.1043,0.1244 -0.2464,0.2142 -0.4267,0.2696 -0.1802,0.0553 -0.4062,0.0828 -0.6779,0.0828 h -0.6544 v 1.3984 z"
         class="fil2"
         id="_130045840" />
      <polygon
         style="fill:#ffffff"
         points="188.932,88.4052 190.127,88.4052 190.127,92.2964 188.929,92.2964 188.929,93.1624 182.2,93.1624 182.2,86.5937 190.127,86.5937 190.127,88.1029 188.932,88.1029 188.932,87.4664 183.394,87.4664 183.394,92.2897 188.932,92.2897 "
         class="fil3"
         id="_130045768" />
    </g>
  </g>
</svg>
